ClarityCity-Bold Italic.ufo
<glyph name="quotesingle" format="1">
  <advance width="286"/>
  <unicode hex="0027"/>
  <outline>
    <contour>
      <point x="132" y="370" type="curve"/>
      <point x="200" y="370" type="line"/>
      <point x="241" y="441"/>
      <point x="314" y="569"/>
      <point x="314" y="626" type="curve" smooth="yes"/>
      <point x="314" y="671"/>
      <point x="282" y="705"/>
      <point x="236" y="705" type="curve" smooth="yes"/>
      <point x="159" y="705"/>
      <point x="114" y="636"/>
      <point x="114" y="544" type="curve" smooth="yes"/>
      <point x="114" y="492"/>
      <point x="123" y="429"/>
    </contour>
  </outline>
</glyph>
<glyph name="parenleft" format="1">
  <advance width="396"/>
  <unicode hex="0028"/>
  <outline>
    <contour>
      <point x="188" y="-166" type="curve"/>
      <point x="297" y="-72" type="line"/>
      <point x="238" y="2"/>
      <point x="213" y="72"/>
      <point x="213" y="152" type="curve" smooth="yes"/>
      <point x="213" y="322"/>
      <point x="298" y="470"/>
      <point x="442" y="593" type="curve"/>
      <point x="356" y="704" type="line"/>
      <point x="160" y="589"/>
      <point x="30" y="385"/>
      <point x="30" y="168" type="curve" smooth="yes"/>
      <point x="30" y="28"/>
      <point x="88" y="-90"/>
    </contour>
  </outline>
</glyph>
<glyph name="asterisk" format="1">
  <advance width="448"/>
  <unicode hex="002A"/>
  <outline>
    <contour>
      <point x="238" y="325" type="curve" smooth="yes"/>
      <point x="264" y="325"/>
      <point x="289" y="345"/>
      <point x="294" y="368" type="curve" smooth="yes"/>
      <point x="301" y="400"/>
      <point x="289" y="444"/>
      <point x="290" y="476" type="curve"/>
      <point x="311" y="456"/>
      <point x="331" y="416"/>
      <point x="355" y="400" type="curve" smooth="yes"/>
      <point x="372" y="388"/>
      <point x="402" y="396"/>
      <point x="420" y="419" type="curve" smooth="yes"/>
      <point x="437" y="442"/>
      <point x="436" y="470"/>
      <point x="419" y="481" type="curve" smooth="yes"/>
      <point x="395" y="497"/>
      <point x="348" y="502"/>
      <point x="319" y="514" type="curve"/>
      <point x="352" y="526"/>
      <point x="402" y="530"/>
      <point x="432" y="546" type="curve" smooth="yes"/>
      <point x="454" y="557"/>
      <point x="467" y="585"/>
      <point x="459" y="608" type="curve" smooth="yes"/>
      <point x="451" y="631"/>
      <point x="424" y="639"/>
      <point x="402" y="627" type="curve" smooth="yes"/>
      <point x="372" y="611"/>
      <point x="335" y="572"/>
      <point x="305" y="552" type="curve"/>
      <point x="317" y="584"/>
      <point x="347" y="628"/>
      <point x="354" y="660" type="curve" smooth="yes"/>
      <point x="359" y="683"/>
      <point x="342" y="703"/>
      <point x="316" y="703" type="curve" smooth="yes"/>
      <point x="290" y="703"/>
      <point x="265" y="683"/>
      <point x="260" y="660" type="curve" smooth="yes"/>
      <point x="253" y="628"/>
      <point x="264" y="584"/>
      <point x="262" y="552" type="curve"/>
      <point x="241" y="572"/>
      <point x="222" y="612"/>
      <point x="198" y="628" type="curve" smooth="yes"/>
      <point x="181" y="640"/>
      <point x="151" y="632"/>
      <point x="133" y="609" type="curve" smooth="yes"/>
      <point x="115" y="586"/>
      <point x="117" y="558"/>
      <point x="134" y="547" type="curve" smooth="yes"/>
      <point x="158" y="531"/>
      <point x="204" y="526"/>
      <point x="232" y="514" type="curve"/>
      <point x="200" y="502"/>
      <point x="151" y="498"/>
      <point x="121" y="482" type="curve" smooth="yes"/>
      <point x="98" y="471"/>
      <point x="86" y="443"/>
      <point x="94" y="420" type="curve" smooth="yes"/>
      <point x="102" y="397"/>
      <point x="128" y="389"/>
      <point x="151" y="401" type="curve" smooth="yes"/>
      <point x="181" y="417"/>
      <point x="216" y="456"/>
      <point x="246" y="476" type="curve"/>
      <point x="235" y="444"/>
      <point x="207" y="400"/>
      <point x="200" y="368" type="curve" smooth="yes"/>
      <point x="195" y="345"/>
      <point x="212" y="325"/>
    </contour>
  </outline>
</glyph>
<glyph name="period" format="1">
  <advance width="351"/>
  <unicode hex="002E"/>
  <outline>
    <contour>
      <point x="133" y="-12" type="curve" smooth="yes"/>
      <point x="197" y="-12"/>
      <point x="258" y="46"/>
      <point x="258" y="116" type="curve" smooth="yes"/>
      <point x="258" y="172"/>
      <point x="216" y="219"/>
      <point x="157" y="219" type="curve" smooth="yes"/>
      <point x="90" y="219"/>
      <point x="28" y="165"/>
      <point x="28" y="93" type="curve" smooth="yes"/>
      <point x="28" y="34"/>
      <point x="70" y="-12"/>
    </contour>
  </outline>
</glyph>
<glyph name="zero" format="1">
  <advance width="727"/>
  <unicode hex="0030"/>
  <outline>
    <contour>
      <point x="319" y="-12" type="curve" smooth="yes"/>
      <point x="544" y="-12"/>
      <point x="712" y="194"/>
      <point x="712" y="422" type="curve" smooth="yes"/>
      <point x="712" y="588"/>
      <point x="609" y="699"/>
      <point x="442" y="699" type="curve" smooth="yes"/>
      <point x="218" y="699"/>
      <point x="50" y="494"/>
      <point x="50" y="265" type="curve" smooth="yes"/>
      <point x="50" y="99"/>
      <point x="153" y="-12"/>
    </contour>
    <contour>
      <point x="331" y="164" type="curve" smooth="yes"/>
      <point x="278" y="164"/>
      <point x="248" y="206"/>
      <point x="248" y="273" type="curve" smooth="yes"/>
      <point x="248" y="388"/>
      <point x="327" y="523"/>
      <point x="431" y="523" type="curve" smooth="yes"/>
      <point x="484" y="523"/>
      <point x="514" y="481"/>
      <point x="514" y="414" type="curve" smooth="yes"/>
      <point x="514" y="300"/>
      <point x="434" y="164"/>
    </contour>
  </outline>
</glyph>
<glyph name="three" format="1">
  <advance width="638"/>
  <unicode hex="0033"/>
  <outline>
    <contour>
      <point x="273" y="-13" type="curve" smooth="yes"/>
      <point x="436" y="-13"/>
      <point x="587" y="73"/>
      <point x="587" y="216" type="curve" smooth="yes"/>
      <point x="587" y="289"/>
      <point x="537" y="336"/>
      <point x="477" y="350" type="curve"/>
      <point x="572" y="377"/>
      <point x="637" y="439"/>
      <point x="637" y="532" type="curve" smooth="yes"/>
      <point x="637" y="629"/>
      <point x="552" y="699"/>
      <point x="395" y="699" type="curve" smooth="yes"/>
      <point x="270" y="699"/>
      <point x="176" y="652"/>
      <point x="102" y="583" type="curve"/>
      <point x="192" y="453" type="line"/>
      <point x="243" y="494"/>
      <point x="300" y="526"/>
      <point x="363" y="526" type="curve" smooth="yes"/>
      <point x="413" y="526"/>
      <point x="439" y="515"/>
      <point x="434" y="488" type="curve" smooth="yes"/>
      <point x="426" y="450"/>
      <point x="386" y="425"/>
      <point x="322" y="425" type="curve" smooth="yes"/>
      <point x="246" y="425" type="line"/>
      <point x="212" y="263" type="line"/>
      <point x="302" y="264" type="line" smooth="yes"/>
      <point x="375" y="265"/>
      <point x="394" y="257"/>
      <point x="394" y="237" type="curve" smooth="yes"/>
      <point x="394" y="192"/>
      <point x="337" y="160"/>
      <point x="273" y="160" type="curve" smooth="yes"/>
      <point x="221" y="160"/>
      <point x="162" y="177"/>
      <point x="121" y="225" type="curve"/>
      <point x="-6" y="106" type="line"/>
      <point x="46" y="38"/>
      <point x="136" y="-13"/>
    </contour>
  </outline>
</glyph>
<glyph name="four" format="1">
  <advance width="690"/>
  <unicode hex="0034"/>
  <outline>
    <contour>
      <point x="325" y="0" type="line"/>
      <point x="519" y="0" type="line"/>
      <point x="545" y="122" type="line"/>
      <point x="628" y="122" type="line"/>
      <point x="661" y="282" type="line"/>
      <point x="578" y="282" type="line"/>
      <point x="662" y="686" type="line"/>
      <point x="422" y="686" type="line"/>
      <point x="33" y="268" type="line"/>
      <point x="21" y="122" type="line"/>
      <point x="351" y="122" type="line"/>
    </contour>
    <contour>
      <point x="239" y="282" type="line"/>
      <point x="429" y="488" type="line"/>
      <point x="384" y="282" type="line"/>
    </contour>
  </outline>
</glyph>
<glyph name="five" format="1">
  <advance width="640"/>
  <unicode hex="0035"/>
  <outline>
    <contour>
      <point x="265" y="-13" type="curve" smooth="yes"/>
      <point x="453" y="-13"/>
      <point x="600" y="97"/>
      <point x="600" y="274" type="curve" smooth="yes"/>
      <point x="600" y="389"/>
      <point x="514" y="454"/>
      <point x="403" y="454" type="curve" smooth="yes"/>
      <point x="358" y="454"/>
      <point x="315" y="443"/>
      <point x="278" y="420" type="curve"/>
      <point x="306" y="514" type="line"/>
      <point x="617" y="514" type="line"/>
      <point x="653" y="687" type="line"/>
      <point x="164" y="687" type="line"/>
      <point x="75" y="304" type="line"/>
      <point x="196" y="251" type="line"/>
      <point x="234" y="277"/>
      <point x="279" y="296"/>
      <point x="333" y="296" type="curve" smooth="yes"/>
      <point x="381" y="296"/>
      <point x="407" y="281"/>
      <point x="407" y="253" type="curve" smooth="yes"/>
      <point x="407" y="199"/>
      <point x="344" y="154"/>
      <point x="275" y="154" type="curve" smooth="yes"/>
      <point x="222" y="154"/>
      <point x="168" y="178"/>
      <point x="126" y="221" type="curve"/>
      <point x="-4" y="95" type="line"/>
      <point x="55" y="31"/>
      <point x="138" y="-13"/>
    </contour>
  </outline>
</glyph>
<glyph name="seven" format="1">
  <advance width="610"/>
  <unicode hex="0037"/>
  <outline>
    <contour>
      <point x="36" y="0" type="line"/>
      <point x="259" y="0" type="line"/>
      <point x="636" y="541" type="line"/>
      <point x="664" y="687" type="line"/>
      <point x="122" y="687" type="line"/>
      <point x="86" y="514" type="line"/>
      <point x="403" y="514" type="line"/>
    </contour>
  </outline>
</glyph>
<glyph name="eight" format="1">
  <advance width="661"/>
  <unicode hex="0038"/>
  <outline>
    <contour>
      <point x="286" y="-12" type="curve" smooth="yes"/>
      <point x="450" y="-12"/>
      <point x="609" y="60"/>
      <point x="609" y="210" type="curve" smooth="yes"/>
      <point x="609" y="273"/>
      <point x="574" y="322"/>
      <point x="518" y="349" type="curve"/>
      <point x="603" y="386"/>
      <point x="658" y="442"/>
      <point x="658" y="531" type="curve" smooth="yes"/>
      <point x="658" y="637"/>
      <point x="548" y="699"/>
      <point x="409" y="699" type="curve" smooth="yes"/>
      <point x="261" y="699"/>
      <point x="107" y="630"/>
      <point x="107" y="486" type="curve" smooth="yes"/>
      <point x="107" y="423"/>
      <point x="141" y="383"/>
      <point x="183" y="361" type="curve"/>
      <point x="91" y="325"/>
      <point x="22" y="261"/>
      <point x="22" y="164" type="curve" smooth="yes"/>
      <point x="22" y="51"/>
      <point x="137" y="-12"/>
    </contour>
    <contour>
      <point x="295" y="148" type="curve" smooth="yes"/>
      <point x="248" y="148"/>
      <point x="220" y="161"/>
      <point x="220" y="185" type="curve" smooth="yes"/>
      <point x="220" y="232"/>
      <point x="286" y="269"/>
      <point x="345" y="272" type="curve"/>
      <point x="386" y="270"/>
      <point x="421" y="256"/>
      <point x="421" y="232" type="curve" smooth="yes"/>
      <point x="421" y="185"/>
      <point x="357" y="148"/>
    </contour>
    <contour>
      <point x="351" y="420" type="curve"/>
      <point x="316" y="422"/>
      <point x="290" y="436"/>
      <point x="290" y="459" type="curve" smooth="yes"/>
      <point x="290" y="502"/>
      <point x="344" y="540"/>
      <point x="401" y="540" type="curve" smooth="yes"/>
      <point x="442" y="540"/>
      <point x="465" y="526"/>
      <point x="465" y="505" type="curve" smooth="yes"/>
      <point x="465" y="463"/>
      <point x="406" y="423"/>
    </contour>
  </outline>
</glyph>
<glyph name="colon" format="1">
  <advance width="342"/>
  <unicode hex="003A"/>
  <outline>
    <contour>
      <point x="197" y="313" type="curve" smooth="yes"/>
      <point x="261" y="313"/>
      <point x="322" y="371"/>
      <point x="322" y="440" type="curve" smooth="yes"/>
      <point x="322" y="497"/>
      <point x="280" y="544"/>
      <point x="220" y="544" type="curve" smooth="yes"/>
      <point x="154" y="544"/>
      <point x="91" y="490"/>
      <point x="91" y="419" type="curve" smooth="yes"/>
      <point x="91" y="359"/>
      <point x="133" y="313"/>
    </contour>
    <contour>
      <point x="129" y="-12" type="curve" smooth="yes"/>
      <point x="193" y="-12"/>
      <point x="254" y="46"/>
      <point x="254" y="116" type="curve" smooth="yes"/>
      <point x="254" y="172"/>
      <point x="212" y="219"/>
      <point x="153" y="219" type="curve" smooth="yes"/>
      <point x="86" y="219"/>
      <point x="24" y="165"/>
      <point x="24" y="93" type="curve" smooth="yes"/>
      <point x="24" y="34"/>
      <point x="66" y="-12"/>
    </contour>
  </outline>
</glyph>
<glyph name="equal" format="1">
  <advance width="673"/>
  <unicode hex="003D"/>
  <outline>
    <contour>
      <point x="113" y="382" type="line"/>
      <point x="612" y="382" type="line"/>
      <point x="643" y="531" type="line"/>
      <point x="144" y="531" type="line"/>
    </contour>
    <contour>
      <point x="64" y="148" type="line"/>
      <point x="563" y="148" type="line"/>
      <point x="594" y="297" type="line"/>
      <point x="95" y="297" type="line"/>
    </contour>
  </outline>
</glyph>
<glyph name="A" format="1">
  <advance width="799"/>
  <unicode hex="0041"/>
  <outline>
    <contour>
      <point x="157" y="92" type="line"/>
      <point x="576" y="92" type="line"/>
      <point x="605" y="235" type="line"/>
      <point x="186" y="235" type="line"/>
    </contour>
    <component base="V" xScale="-1" yScale="-1" xOffset="750" yOffset="687"/>
    <contour>
      <point x="719" y="0" type="move" name="bottom"/>
    </contour>
    <contour>
      <point x="489" y="687" type="move" name="top"/>
    </contour>
  </outline>
</glyph>
<glyph name="F" format="1">
  <advance width="631"/>
  <unicode hex="0046"/>
  <outline>
    <contour>
      <point x="19" y="0" type="line"/>
      <point x="213" y="0" type="line"/>
      <point x="277" y="313" type="line"/>
      <point x="167" y="244" type="line"/>
      <point x="591" y="244" type="line"/>
      <point x="627" y="417" type="line"/>
      <point x="207" y="417" type="line"/>
      <point x="287" y="347" type="line"/>
      <point x="343" y="633" type="line"/>
      <point x="223" y="514" type="line"/>
      <point x="679" y="514" type="line"/>
      <point x="715" y="687" type="line"/>
      <point x="162" y="687" type="line"/>
    </contour>
  </outline>
</glyph>
<glyph name="G" format="1">
  <advance width="713"/>
  <unicode hex="0047"/>
  <outline>
    <contour>
      <point x="339" y="-12" type="curve" smooth="yes"/>
      <point x="441" y="-12"/>
      <point x="552" y="27"/>
      <point x="639" y="104" type="curve"/>
      <point x="516" y="240" type="line"/>
      <point x="473" y="196"/>
      <point x="412" y="164"/>
      <point x="351" y="164" type="curve" smooth="yes"/>
      <point x="271" y="164"/>
      <point x="215" y="221"/>
      <point x="215" y="296" type="curve" smooth="yes"/>
      <point x="215" y="405"/>
      <point x="332" y="523"/>
      <point x="451" y="523" type="curve" smooth="yes"/>
      <point x="499" y="523"/>
      <point x="545" y="503"/>
      <point x="570" y="459" type="curve"/>
      <point x="730" y="573" type="line"/>
      <point x="673" y="649"/>
      <point x="577" y="699"/>
      <point x="462" y="699" type="curve" smooth="yes"/>
      <point x="243" y="699"/>
      <point x="18" y="511"/>
      <point x="18" y="290" type="curve" smooth="yes"/>
      <point x="18" y="121"/>
      <point x="152" y="-12"/>
    </contour>
    <contour>
      <point x="451" y="104" type="line"/>
      <point x="639" y="104" type="line"/>
      <point x="700" y="396" type="line"/>
      <point x="378" y="396" type="line"/>
      <point x="348" y="253" type="line"/>
      <point x="509" y="253" type="line"/>
      <point x="486" y="282" type="line"/>
    </contour>
    <contour>
      <point x="334" y="0" type="move" name="bottom"/>
    </contour>
    <contour>
      <point x="464" y="687" type="move" name="top"/>
    </contour>
  </outline>
</glyph>
<glyph name="H" format="1">
  <advance width="785"/>
  <unicode hex="0048"/>
  <outline>
    <contour>
      <point x="19" y="0" type="line"/>
      <point x="213" y="0" type="line"/>
      <point x="277" y="315" type="line"/>
      <point x="219" y="264" type="line"/>
      <point x="563" y="264" type="line"/>
      <point x="528" y="315" type="line"/>
      <point x="465" y="0" type="line"/>
      <point x="658" y="0" type="line"/>
      <point x="801" y="687" type="line"/>
      <point x="607" y="687" type="line"/>
      <point x="547" y="385" type="line"/>
      <point x="606" y="437" type="line"/>
      <point x="260" y="437" type="line"/>
      <point x="296" y="385" type="line"/>
      <point x="356" y="687" type="line"/>
      <point x="162" y="687" type="line"/>
    </contour>
  </outline>
</glyph>
<glyph name="J" format="1">
  <advance width="432"/>
  <unicode hex="004A"/>
  <outline>
    <contour>
      <point x="77" y="-12" type="curve" smooth="yes"/>
      <point x="217" y="-12"/>
      <point x="333" y="78"/>
      <point x="361" y="216" type="curve" smooth="yes"/>
      <point x="459" y="687" type="line"/>
      <point x="265" y="687" type="line"/>
      <point x="175" y="252" type="line" smooth="yes"/>
      <point x="165" y="205"/>
      <point x="116" y="164"/>
      <point x="63" y="164" type="curve" smooth="yes"/>
      <point x="34" y="164"/>
      <point x="3" y="182"/>
      <point x="-8" y="217" type="curve"/>
      <point x="-151" y="108" type="line"/>
      <point x="-114" y="41"/>
      <point x="-22" y="-12"/>
    </contour>
  </outline>
</glyph>
<glyph name="K" format="1">
  <advance width="676"/>
  <unicode hex="004B"/>
  <outline>
    <contour>
      <point x="19" y="0" type="line"/>
      <point x="213" y="0" type="line"/>
      <point x="254" y="182" type="line"/>
      <point x="343" y="260" type="line"/>
      <point x="464" y="0" type="line"/>
      <point x="685" y="0" type="line"/>
      <point x="498" y="395" type="line"/>
      <point x="819" y="687" type="line"/>
      <point x="572" y="687" type="line"/>
      <point x="304" y="444" type="line"/>
      <point x="356" y="687" type="line"/>
      <point x="162" y="687" type="line"/>
    </contour>
    <contour>
      <point x="337" y="0" type="move" name="bottom"/>
    </contour>
  </outline>
</glyph>
<glyph name="O" format="1">
  <advance width="771"/>
  <unicode hex="004F"/>
  <outline>
    <contour>
      <point x="341" y="-12" type="curve" smooth="yes"/>
      <point x="585" y="-12"/>
      <point x="784" y="173"/>
      <point x="784" y="399" type="curve" smooth="yes"/>
      <point x="784" y="570"/>
      <point x="647" y="699"/>
      <point x="464" y="699" type="curve" smooth="yes"/>
      <point x="221" y="699"/>
      <point x="22" y="515"/>
      <point x="22" y="289" type="curve" smooth="yes"/>
      <point x="22" y="117"/>
      <point x="159" y="-12"/>
    </contour>
    <contour>
      <point x="353" y="164" type="curve" smooth="yes"/>
      <point x="278" y="164"/>
      <point x="222" y="220"/>
      <point x="222" y="295" type="curve" smooth="yes"/>
      <point x="222" y="420"/>
      <point x="326" y="523"/>
      <point x="453" y="523" type="curve" smooth="yes"/>
      <point x="528" y="523"/>
      <point x="584" y="467"/>
      <point x="584" y="392" type="curve" smooth="yes"/>
      <point x="584" y="267"/>
      <point x="480" y="164"/>
    </contour>
    <contour>
      <point x="469" y="687" type="move" name="top"/>
    </contour>
  </outline>
</glyph>
<glyph name="P" format="1">
  <advance width="635"/>
  <unicode hex="0050"/>
  <outline>
    <contour>
      <point x="19" y="0" type="line"/>
      <point x="213" y="0" type="line"/>
      <point x="257" y="207" type="line"/>
      <point x="398" y="207" type="line" smooth="yes"/>
      <point x="570" y="207"/>
      <point x="707" y="324"/>
      <point x="707" y="487" type="curve" smooth="yes"/>
      <point x="707" y="606"/>
      <point x="619" y="687"/>
      <point x="485" y="687" type="curve" smooth="yes"/>
      <point x="162" y="687" type="line"/>
    </contour>
    <contour>
      <point x="293" y="383" type="line"/>
      <point x="320" y="511" type="line"/>
      <point x="445" y="511" type="line" smooth="yes"/>
      <point x="486" y="511"/>
      <point x="509" y="496"/>
      <point x="509" y="471" type="curve" smooth="yes"/>
      <point x="509" y="429"/>
      <point x="457" y="383"/>
      <point x="406" y="383" type="curve" smooth="yes"/>
    </contour>
  </outline>
</glyph>
<glyph name="Q" format="1">
  <advance width="794"/>
  <unicode hex="0051"/>
  <outline>
    <contour>
      <point x="639" y="0" type="line"/>
      <point x="748" y="106" type="line"/>
      <point x="523" y="340" type="line"/>
      <point x="414" y="234" type="line"/>
    </contour>
    <component base="O"/>
  </outline>
</glyph>
<glyph name="R" format="1">
  <advance width="693"/>
  <unicode hex="0052"/>
  <outline>
    <contour>
      <point x="434" y="0" type="line"/>
      <point x="650" y="0" type="line"/>
      <point x="487" y="269" type="line"/>
      <point x="271" y="269" type="line"/>
    </contour>
    <component base="P"/>
    <contour>
      <point x="307" y="0" type="move" name="bottom"/>
    </contour>
    <contour>
      <point x="447" y="687" type="move" name="top"/>
    </contour>
  </outline>
</glyph>
<glyph name="T" format="1">
  <advance width="502"/>
  <unicode hex="0054"/>
  <outline>
    <contour>
      <point x="100" y="0" type="line"/>
      <point x="294" y="0" type="line"/>
      <point x="401" y="514" type="line"/>
      <point x="604" y="514" type="line"/>
      <point x="640" y="687" type="line"/>
      <point x="40" y="687" type="line"/>
      <point x="4" y="514" type="line"/>
      <point x="207" y="514" type="line"/>
    </contour>
    <contour>
      <point x="191" y="0" type="move" name="bottom"/>
    </contour>
    <contour>
      <point x="340" y="687" type="move" name="top"/>
    </contour>
  </outline>
</glyph>
<glyph name="W" format="1">
  <advance width="1017"/>
  <unicode hex="0057"/>
  <outline>
    <contour>
      <point x="115" y="0" type="line"/>
      <point x="311" y="0" type="line"/>
      <point x="540" y="397" type="line"/>
      <point x="598" y="0" type="line"/>
      <point x="794" y="0" type="line"/>
      <point x="1127" y="687" type="line"/>
      <point x="915" y="687" type="line"/>
      <point x="747" y="290" type="line"/>
      <point x="699" y="687" type="line"/>
      <point x="490" y="687" type="line"/>
      <point x="273" y="290" type="line"/>
      <point x="273" y="687" type="line"/>
      <point x="67" y="687" type="line"/>
    </contour>
    <contour>
      <point x="595" y="687" type="move" name="top"/>
    </contour>
  </outline>
</glyph>
<glyph name="X" format="1">
  <advance width="621"/>
  <unicode hex="0058"/>
  <outline>
    <contour>
      <point x="390" y="0" type="line"/>
      <point x="47" y="687" type="line"/>
      <point x="265" y="687" type="line"/>
      <point x="608" y="0" type="line"/>
    </contour>
    <contour>
      <point x="-109" y="0" type="line"/>
      <point x="524" y="687" type="line"/>
      <point x="764" y="687" type="line"/>
      <point x="131" y="0" type="line"/>
    </contour>
  </outline>
</glyph>
<glyph name="Y" format="1">
  <advance width="519"/>
  <unicode hex="0059"/>
  <outline>
    <contour>
      <point x="106" y="0" type="line"/>
      <point x="300" y="0" type="line"/>
      <point x="350" y="226" type="line"/>
      <point x="709" y="687" type="line"/>
      <point x="491" y="687" type="line"/>
      <point x="274" y="394" type="line"/>
      <point x="168" y="687" type="line"/>
      <point x="-12" y="687" type="line"/>
      <point x="156" y="226" type="line"/>
    </contour>
    <contour>
      <point x="330" y="687" type="move" name="top"/>
    </contour>
  </outline>
</glyph>
<glyph name="Z" format="1">
  <advance width="644"/>
  <unicode hex="005A"/>
  <outline>
    <contour>
      <point x="-29" y="0" type="line"/>
      <point x="566" y="0" type="line"/>
      <point x="602" y="173" type="line"/>
      <point x="276" y="173" type="line"/>
      <point x="676" y="542" type="line"/>
      <point x="704" y="687" type="line"/>
      <point x="120" y="687" type="line"/>
      <point x="84" y="514" type="line"/>
      <point x="400" y="514" type="line"/>
      <point x="-3" y="145" type="line"/>
    </contour>
    <contour>
      <point x="412" y="687" type="move" name="top"/>
    </contour>
  </outline>
</glyph>
<glyph name="bracketright" format="1">
  <advance width="401"/>
  <unicode hex="005D"/>
  <outline>
    <contour>
      <point x="-51" y="-160" type="line"/>
      <point x="244" y="-160" type="line"/>
      <point x="421" y="689" type="line"/>
      <point x="126" y="689" type="line"/>
      <point x="101" y="568" type="line"/>
      <point x="249" y="568" type="line"/>
      <point x="122" y="-39" type="line"/>
      <point x="-26" y="-39" type="line"/>
    </contour>
  </outline>
</glyph>
<glyph name="f" format="1">
  <advance width="391"/>
  <unicode hex="0066"/>
  <outline>
    <contour>
      <point x="31" y="0" type="line"/>
      <point x="215" y="0" type="line"/>
      <point x="321" y="509" type="line" smooth="yes"/>
      <point x="327" y="535"/>
      <point x="351" y="570"/>
      <point x="396" y="570" type="curve" smooth="yes"/>
      <point x="404" y="570"/>
      <point x="417" y="569"/>
      <point x="428" y="560" type="curve"/>
      <point x="474" y="662" type="line"/>
      <point x="447" y="693"/>
      <point x="398" y="720"/>
      <point x="339" y="720" type="curve" smooth="yes"/>
      <point x="249" y="720"/>
      <point x="168" y="656"/>
      <point x="146" y="553" type="curve" smooth="yes"/>
    </contour>
    <contour>
      <point x="42" y="365" type="line"/>
      <point x="393" y="365" type="line"/>
      <point x="425" y="517" type="line"/>
      <point x="74" y="517" type="line"/>
    </contour>
  </outline>
</glyph>
<glyph name="n" format="1">
  <advance width="633"/>
  <unicode hex="006E"/>
  <outline>
    <component base="idotless"/>
    <component base="lowercase_nh_shoulder" xOffset="195"/>
    <contour>
      <point x="267" y="0" type="move" name="bottom"/>
    </contour>
    <contour>
      <point x="372" y="517" type="move" name="top"/>
    </contour>
  </outline>
</glyph>
<glyph name="s" format="1">
  <advance width="502"/>
  <unicode hex="0073"/>
  <outline>
    <contour>
      <point x="213" y="-12" type="curve" smooth="yes"/>
      <point x="353" y="-12"/>
      <point x="463" y="61"/>
      <point x="463" y="181" type="curve" smooth="yes"/>
      <point x="463" y="288"/>
      <point x="374" y="309"/>
      <point x="284" y="330" type="curve" smooth="yes"/>
      <point x="232" y="342"/>
      <point x="225" y="347"/>
      <point x="225" y="356" type="curve" smooth="yes"/>
      <point x="225" y="375"/>
      <point x="256" y="398"/>
      <point x="295" y="398" type="curve" smooth="yes"/>
      <point x="333" y="398"/>
      <point x="388" y="375"/>
      <point x="425" y="347" type="curve"/>
      <point x="505" y="457" type="line"/>
      <point x="451" y="496"/>
      <point x="380" y="529"/>
      <point x="295" y="529" type="curve" smooth="yes"/>
      <point x="162" y="529"/>
      <point x="53" y="449"/>
      <point x="53" y="332" type="curve" smooth="yes"/>
      <point x="53" y="230"/>
      <point x="135" y="211"/>
      <point x="231" y="189" type="curve" smooth="yes"/>
      <point x="288" y="176"/>
      <point x="291" y="169"/>
      <point x="291" y="162" type="curve" smooth="yes"/>
      <point x="291" y="140"/>
      <point x="265" y="122"/>
      <point x="221" y="122" type="curve" smooth="yes"/>
      <point x="173" y="122"/>
      <point x="104" y="144"/>
      <point x="62" y="179" type="curve"/>
      <point x="-25" y="71" type="line"/>
      <point x="30" y="22"/>
      <point x="117" y="-12"/>
    </contour>
    <contour>
      <point x="199" y="0" type="move" name="bottom"/>
    </contour>
    <contour>
      <point x="307" y="517" type="move" name="top"/>
    </contour>
  </outline>
</glyph>
<glyph name="w" format="1">
  <advance width="854"/>
  <unicode hex="0077"/>
  <outline>
    <contour>
      <point x="134" y="0" type="line"/>
      <point x="305" y="0" type="line"/>
      <point x="430" y="266" type="line"/>
      <point x="443" y="0" type="line"/>
      <point x="614" y="0" type="line"/>
      <point x="898" y="517" type="line"/>
      <point x="709" y="517" type="line"/>
      <point x="578" y="259" type="line"/>
      <point x="557" y="517" type="line"/>
      <point x="399" y="517" type="line"/>
      <point x="267" y="259" type="line"/>
      <point x="245" y="517" type="line"/>
      <point x="64" y="517" type="line"/>
    </contour>
    <contour>
      <point x="478" y="517" type="move" name="top"/>
    </contour>
  </outline>
</glyph>
<glyph name="x" format="1">
  <advance width="587"/>
  <unicode hex="0078"/>
  <outline>
    <contour>
      <point x="325" y="0" type="line"/>
      <point x="524" y="0" type="line"/>
      <point x="275" y="517" type="line"/>
      <point x="75" y="517" type="line"/>
    </contour>
    <contour>
      <point x="-46" y="0" type="line"/>
      <point x="158" y="0" type="line"/>
      <point x="626" y="517" type="line"/>
      <point x="423" y="517" type="line"/>
    </contour>
  </outline>
</glyph>
<glyph name="copyright" format="1">
  <advance width="901"/>
  <unicode hex="00A9"/>
  <outline>
    <contour>
      <point x="373" y="-116" type="curve" smooth="yes"/>
      <point x="600" y="-116"/>
      <point x="805" y="54"/>
      <point x="851" y="280" type="curve" smooth="yes"/>
      <point x="898" y="506"/>
      <point x="763" y="675"/>
      <point x="537" y="675" type="curve" smooth="yes"/>
      <point x="309" y="675"/>
      <point x="104" y="506"/>
      <point x="58" y="280" type="curve" smooth="yes"/>
      <point x="12" y="54"/>
      <point x="147" y="-116"/>
    </contour>
    <contour>
      <point x="382" y="-73" type="curve" smooth="yes"/>
      <point x="181" y="-73"/>
      <point x="61" y="78"/>
      <point x="102" y="280" type="curve" smooth="yes"/>
      <point x="143" y="481"/>
      <point x="326" y="632"/>
      <point x="528" y="632" type="curve" smooth="yes"/>
      <point x="728" y="632"/>
      <point x="848" y="481"/>
      <point x="807" y="280" type="curve" smooth="yes"/>
      <point x="766" y="78"/>
      <point x="584" y="-73"/>
    </contour>
    <contour>
      <point x="420" y="9" type="curve" smooth="yes"/>
      <point x="510" y="9"/>
      <point x="588" y="42"/>
      <point x="652" y="102" type="curve"/>
      <point x="539" y="216" type="line"/>
      <point x="515" y="192"/>
      <point x="470" y="169"/>
      <point x="431" y="169" type="curve" smooth="yes"/>
      <point x="385" y="169"/>
      <point x="353" y="202"/>
      <point x="353" y="246" type="curve" smooth="yes"/>
      <point x="353" y="314"/>
      <point x="426" y="390"/>
      <point x="501" y="390" type="curve" smooth="yes"/>
      <point x="527" y="390"/>
      <point x="560" y="379"/>
      <point x="575" y="356" type="curve"/>
      <point x="715" y="448" type="line"/>
      <point x="675" y="506"/>
      <point x="609" y="550"/>
      <point x="511" y="550" type="curve" smooth="yes"/>
      <point x="344" y="550"/>
      <point x="172" y="412"/>
      <point x="172" y="243" type="curve" smooth="yes"/>
      <point x="172" y="112"/>
      <point x="276" y="9"/>
    </contour>
  </outline>
</glyph>
<glyph name="registered" format="1">
  <advance width="607"/>
  <unicode hex="00AE"/>
  <outline>
    <contour>
      <point x="289" y="184" type="curve" smooth="yes"/>
      <point x="442" y="184"/>
      <point x="591" y="327"/>
      <point x="591" y="479" type="curve" smooth="yes"/>
      <point x="591" y="591"/>
      <point x="509" y="675"/>
      <point x="391" y="675" type="curve" smooth="yes"/>
      <point x="236" y="675"/>
      <point x="88" y="534"/>
      <point x="88" y="381" type="curve" smooth="yes"/>
      <point x="88" y="269"/>
      <point x="170" y="184"/>
    </contour>
    <contour>
      <point x="298" y="226" type="curve" smooth="yes"/>
      <point x="199" y="226"/>
      <point x="131" y="296"/>
      <point x="131" y="389" type="curve" smooth="yes"/>
      <point x="131" y="516"/>
      <point x="254" y="633"/>
      <point x="382" y="633" type="curve" smooth="yes"/>
      <point x="481" y="633"/>
      <point x="548" y="563"/>
      <point x="548" y="471" type="curve" smooth="yes"/>
      <point x="548" y="343"/>
      <point x="426" y="226"/>
    </contour>
    <contour>
      <point x="338" y="280" type="line"/>
      <point x="444" y="280" type="line"/>
      <point x="386" y="398" type="line"/>
      <point x="279" y="398" type="line"/>
    </contour>
    <contour>
      <point x="307" y="458" type="line"/>
      <point x="314" y="494" type="line"/>
      <point x="362" y="494" type="line" smooth="yes"/>
      <point x="375" y="494"/>
      <point x="382" y="488"/>
      <point x="382" y="479" type="curve" smooth="yes"/>
      <point x="382" y="466"/>
      <point x="369" y="458"/>
      <point x="355" y="458" type="curve" smooth="yes"/>
    </contour>
    <contour>
      <point x="175" y="280" type="line"/>
      <point x="270" y="280" type="line"/>
      <point x="289" y="371" type="line"/>
      <point x="337" y="371" type="line" smooth="yes"/>
      <point x="411" y="371"/>
      <point x="481" y="425"/>
      <point x="481" y="496" type="curve" smooth="yes"/>
      <point x="481" y="546"/>
      <point x="440" y="580"/>
      <point x="380" y="580" type="curve" smooth="yes"/>
      <point x="237" y="580" type="line"/>
    </contour>
  </outline>
</glyph>
<glyph name="acute" format="1">
  <advance width="324"/>
  <unicode hex="00B4"/>
  <outline>
    <contour>
      <point x="85" y="574" type="line"/>
      <point x="216" y="574" type="line"/>
      <point x="396" y="710" type="line"/>
      <point x="231" y="738" type="line"/>
    </contour>
    <contour>
      <point x="141" y="517" type="move" name="_top"/>
    </contour>
    <contour>
      <point x="179" y="704" type="move" name="top"/>
    </contour>
  </outline>
</glyph>
<glyph name="paragraph" format="1">
  <advance width="778"/>
  <unicode hex="00B6"/>
  <outline>
    <contour>
      <point x="230" y="-50" type="line"/>
      <point x="367" y="-50" type="line"/>
      <point x="493" y="556" type="line"/>
      <point x="616" y="556" type="line"/>
      <point x="490" y="-50" type="line"/>
      <point x="627" y="-50" type="line"/>
      <point x="780" y="684" type="line"/>
      <point x="364" y="684" type="line"/>
      <point x="212" y="684"/>
      <point x="93" y="588"/>
      <point x="93" y="444" type="curve" smooth="yes"/>
      <point x="93" y="340"/>
      <point x="171" y="272"/>
      <point x="303" y="272" type="curve"/>
    </contour>
  </outline>
</glyph>
<glyph name="AE" format="1">
  <advance width="1075"/>
  <unicode hex="00C6"/>
  <outline>
    <contour>
      <point x="-35" y="0" type="line"/>
      <point x="193" y="0" type="line"/>
      <point x="265" y="92" type="line"/>
      <point x="436" y="92" type="line"/>
      <point x="417" y="0" type="line"/>
      <point x="970" y="0" type="line"/>
      <point x="1006" y="173" type="line"/>
      <point x="648" y="173" type="line"/>
      <point x="666" y="264" type="line"/>
      <point x="993" y="264" type="line"/>
      <point x="1029" y="437" type="line"/>
      <point x="703" y="437" type="line"/>
      <point x="718" y="514" type="line"/>
      <point x="1077" y="514" type="line"/>
      <point x="1113" y="687" type="line"/>
      <point x="505" y="687" type="line"/>
    </contour>
    <contour>
      <point x="378" y="235" type="line"/>
      <point x="498" y="388" type="line"/>
      <point x="466" y="235" type="line"/>
    </contour>
    <contour>
      <point x="698" y="0" type="move" name="bottom"/>
    </contour>
  </outline>
</glyph>
<glyph name="multiply" format="1">
  <advance width="562"/>
  <unicode hex="00D7"/>
  <outline>
    <contour>
      <point x="130" y="104" type="line"/>
      <point x="552" y="457" type="line"/>
      <point x="463" y="563" type="line"/>
      <point x="41" y="210" type="line"/>
    </contour>
    <contour>
      <point x="373" y="101" type="line"/>
      <point x="505" y="214" type="line"/>
      <point x="221" y="567" type="line"/>
      <point x="89" y="454" type="line"/>
    </contour>
  </outline>
</glyph>
<glyph name="Oslash" format="1">
  <advance width="819"/>
  <unicode hex="00D8"/>
  <outline>
    <contour>
      <point x="-9" y="0" type="line"/>
      <point x="156" y="0" type="line"/>
      <point x="869" y="687" type="line"/>
      <point x="704" y="687" type="line"/>
    </contour>
    <component base="O" xOffset="2"/>
  </outline>
</glyph>
<glyph name="Thorn" format="1">
  <advance width="692"/>
  <unicode hex="00DE"/>
  <outline>
    <contour>
      <point x="14" y="0" type="line"/>
      <point x="208" y="0" type="line"/>
      <point x="230" y="105" type="line"/>
      <point x="372" y="105" type="line" smooth="yes"/>
      <point x="544" y="105"/>
      <point x="681" y="222"/>
      <point x="681" y="385" type="curve" smooth="yes"/>
      <point x="681" y="504"/>
      <point x="593" y="585"/>
      <point x="459" y="585" type="curve" smooth="yes"/>
      <point x="325" y="585" type="line"/>
      <point x="346" y="687" type="line"/>
      <point x="157" y="687" type="line"/>
    </contour>
    <contour>
      <point x="267" y="281" type="line"/>
      <point x="294" y="409" type="line"/>
      <point x="419" y="409" type="line" smooth="yes"/>
      <point x="460" y="409"/>
      <point x="482" y="394"/>
      <point x="482" y="369" type="curve" smooth="yes"/>
      <point x="482" y="327"/>
      <point x="432" y="281"/>
      <point x="380" y="281" type="curve" smooth="yes"/>
    </contour>
  </outline>
</glyph>
<glyph name="germandbls" format="1">
  <advance width="640"/>
  <unicode hex="00DF"/>
  <outline>
    <contour>
      <point x="0" y="0" type="line"/>
      <point x="193" y="0" type="line"/>
      <point x="288" y="455" type="line" smooth="yes"/>
      <point x="296" y="494"/>
      <point x="339" y="524"/>
      <point x="385" y="524" type="curve" smooth="yes"/>
      <point x="419" y="524"/>
      <point x="435" y="512"/>
      <point x="435" y="493" type="curve" smooth="yes"/>
      <point x="435" y="460"/>
      <point x="390" y="420"/>
      <point x="345" y="420" type="curve" smooth="yes"/>
      <point x="350" y="420" type="line"/>
      <point x="319" y="273" type="line"/>
      <point x="355" y="273" type="line" smooth="yes"/>
      <point x="397" y="273"/>
      <point x="418" y="258"/>
      <point x="413" y="233" type="curve" smooth="yes"/>
      <point x="405" y="194"/>
      <point x="362" y="163"/>
      <point x="320" y="163" type="curve" smooth="yes"/>
      <point x="296" y="163" type="line"/>
      <point x="262" y="0" type="line"/>
      <point x="331" y="0" type="line" smooth="yes"/>
      <point x="475" y="0"/>
      <point x="604" y="76"/>
      <point x="604" y="209" type="curve" smooth="yes"/>
      <point x="604" y="274"/>
      <point x="568" y="328"/>
      <point x="511" y="354" type="curve"/>
      <point x="593" y="390"/>
      <point x="641" y="459"/>
      <point x="641" y="542" type="curve" smooth="yes"/>
      <point x="641" y="649"/>
      <point x="549" y="724"/>
      <point x="405" y="724" type="curve" smooth="yes"/>
      <point x="255" y="724"/>
      <point x="135" y="645"/>
      <point x="109" y="522" type="curve" smooth="yes"/>
    </contour>
  </outline>
</glyph>
<glyph name="idotless" format="1">
  <advance width="309"/>
  <unicode hex="0131"/>
  <outline>
    <contour>
      <point x="4" y="0" type="line"/>
      <point x="197" y="0" type="line"/>
      <point x="305" y="517" type="line"/>
      <point x="112" y="517" type="line"/>
    </contour>
    <contour>
      <point x="197" y="0" type="move" name="bottom"/>
    </contour>
    <contour>
      <point x="62" y="275" type="move" name="loop_left"/>
    </contour>
    <contour>
      <point x="241" y="211" type="move" name="r_shoulder"/>
    </contour>
    <contour>
      <point x="255" y="282" type="move" name="shoulder"/>
    </contour>
    <contour>
      <point x="209" y="517" type="move" name="top"/>
    </contour>
  </outline>
</glyph>
<glyph name="lslash" format="1">
  <advance width="396"/>
  <unicode hex="0142"/>
  <outline>
    <contour>
      <point x="10" y="178" type="line"/>
      <point x="393" y="350" type="line"/>
      <point x="426" y="517" type="line"/>
      <point x="42" y="345" type="line"/>
    </contour>
    <component base="l" xOffset="48"/>
  </outline>
</glyph>
<glyph name="jdotless" format="1">
  <advance width="301"/>
  <unicode hex="0237"/>
  <outline>
    <contour>
      <point x="-15" y="-178" type="curve" smooth="yes"/>
      <point x="87" y="-178"/>
      <point x="171" y="-110"/>
      <point x="193" y="-2" type="curve" smooth="yes"/>
      <point x="301" y="517" type="line"/>
      <point x="108" y="517" type="line"/>
      <point x="8" y="38" type="line" smooth="yes"/>
      <point x="2" y="7"/>
      <point x="-29" y="-23"/>
      <point x="-61" y="-23" type="curve" smooth="yes"/>
      <point x="-71" y="-23"/>
      <point x="-89" y="-23"/>
      <point x="-100" y="-18" type="curve"/>
      <point x="-135" y="-151" type="line"/>
      <point x="-109" y="-165"/>
      <point x="-62" y="-178"/>
    </contour>
    <contour>
      <point x="205" y="517" type="move" name="top"/>
    </contour>
  </outline>
</glyph>
<glyph name="breve" format="1">
  <advance width="393"/>
  <unicode hex="02D8"/>
  <outline>
    <contour>
      <point x="262" y="575" type="curve" smooth="yes"/>
      <point x="324" y="575"/>
      <point x="391" y="599"/>
      <point x="448" y="646" type="curve"/>
      <point x="389" y="720" type="line"/>
      <point x="357" y="693"/>
      <point x="317" y="677"/>
      <point x="283" y="677" type="curve" smooth="yes"/>
      <point x="249" y="677"/>
      <point x="217" y="693"/>
      <point x="195" y="720" type="curve"/>
      <point x="106" y="646" type="line"/>
      <point x="144" y="599"/>
      <point x="200" y="575"/>
    </contour>
    <contour>
      <point x="250" y="517" type="move" name="_top"/>
    </contour>
    <contour>
      <point x="288" y="704" type="move" name="top"/>
    </contour>
  </outline>
</glyph>
<glyph name="dotaccent" format="1">
  <advance width="257"/>
  <unicode hex="02D9"/>
  <outline>
    <contour>
      <point x="208" y="575" type="curve" smooth="yes"/>
      <point x="254" y="575"/>
      <point x="298" y="614"/>
      <point x="298" y="666" type="curve" smooth="yes"/>
      <point x="298" y="711"/>
      <point x="265" y="748"/>
      <point x="219" y="748" type="curve" smooth="yes"/>
      <point x="171" y="748"/>
      <point x="127" y="710"/>
      <point x="127" y="656" type="curve" smooth="yes"/>
      <point x="127" y="611"/>
      <point x="158" y="575"/>
    </contour>
    <contour>
      <point x="183" y="517" type="move" name="_top"/>
    </contour>
    <contour>
      <point x="75" y="0" type="move" name="bottom"/>
    </contour>
    <contour>
      <point x="222" y="704" type="move" name="top"/>
    </contour>
  </outline>
</glyph>
<glyph name="ring" format="1">
  <advance width="316"/>
  <unicode hex="02DA"/>
  <outline>
    <contour>
      <point x="224" y="575" type="curve" smooth="yes"/>
      <point x="299" y="575"/>
      <point x="373" y="643"/>
      <point x="373" y="721" type="curve" smooth="yes"/>
      <point x="373" y="776"/>
      <point x="332" y="817"/>
      <point x="274" y="817" type="curve" smooth="yes"/>
      <point x="200" y="817"/>
      <point x="125" y="750"/>
      <point x="125" y="671" type="curve" smooth="yes"/>
      <point x="125" y="616"/>
      <point x="166" y="575"/>
    </contour>
    <contour>
      <point x="239" y="647" type="curve" smooth="yes"/>
      <point x="215" y="647"/>
      <point x="199" y="664"/>
      <point x="199" y="687" type="curve" smooth="yes"/>
      <point x="199" y="718"/>
      <point x="229" y="745"/>
      <point x="259" y="745" type="curve" smooth="yes"/>
      <point x="282" y="745"/>
      <point x="299" y="728"/>
      <point x="299" y="706" type="curve" smooth="yes"/>
      <point x="299" y="675"/>
      <point x="269" y="647"/>
    </contour>
    <contour>
      <point x="212" y="517" type="move" name="_top"/>
    </contour>
    <contour>
      <point x="251" y="704" type="move" name="top"/>
    </contour>
  </outline>
</glyph>
<glyph name="tilde" format="1">
  <advance width="460"/>
  <unicode hex="02DC"/>
  <outline>
    <contour>
      <point x="377" y="571" type="curve" smooth="yes"/>
      <point x="443" y="571"/>
      <point x="484" y="609"/>
      <point x="514" y="704" type="curve"/>
      <point x="427" y="732" type="line"/>
      <point x="416" y="704"/>
      <point x="395" y="683"/>
      <point x="369" y="683" type="curve" smooth="yes"/>
      <point x="349" y="683"/>
      <point x="305" y="724"/>
      <point x="245" y="724" type="curve" smooth="yes"/>
      <point x="178" y="724"/>
      <point x="138" y="685"/>
      <point x="108" y="590" type="curve"/>
      <point x="194" y="563" type="line"/>
      <point x="206" y="592"/>
      <point x="226" y="612"/>
      <point x="252" y="612" type="curve" smooth="yes"/>
      <point x="273" y="612"/>
      <point x="315" y="571"/>
    </contour>
    <contour>
      <point x="284" y="517" type="move" name="_top"/>
    </contour>
    <contour>
      <point x="323" y="704" type="move" name="top"/>
    </contour>
  </outline>
</glyph>
<glyph name="hungarumlaut" format="1">
  <advance width="582"/>
  <unicode hex="02DD"/>
  <outline>
    <contour>
      <point x="85" y="574" type="line"/>
      <point x="216" y="574" type="line"/>
      <point x="396" y="710" type="line"/>
      <point x="231" y="738" type="line"/>
    </contour>
    <contour>
      <point x="343" y="574" type="line"/>
      <point x="474" y="574" type="line"/>
      <point x="654" y="710" type="line"/>
      <point x="489" y="738" type="line"/>
    </contour>
    <contour>
      <point x="269" y="517" type="move" name="_top"/>
    </contour>
    <contour>
      <point x="307" y="704" type="move" name="top"/>
    </contour>
  </outline>
</glyph>
<glyph name="perthousand" format="1">
  <advance width="1305"/>
  <unicode hex="2030"/>
  <outline>
    <contour>
      <point x="87" y="0" type="line"/>
      <point x="234" y="0" type="line"/>
      <point x="860" y="687" type="line"/>
      <point x="713" y="687" type="line"/>
    </contour>
    <contour>
      <point x="639" y="-11" type="curve" smooth="yes"/>
      <point x="754" y="-11"/>
      <point x="844" y="84"/>
      <point x="844" y="195" type="curve" smooth="yes"/>
      <point x="844" y="281"/>
      <point x="787" y="346"/>
      <point x="688" y="346" type="curve" smooth="yes"/>
      <point x="572" y="346"/>
      <point x="481" y="251"/>
      <point x="481" y="139" type="curve" smooth="yes"/>
      <point x="481" y="54"/>
      <point x="539" y="-11"/>
    </contour>
    <contour>
      <point x="636" y="97" type="curve" smooth="yes"/>
      <point x="614" y="97"/>
      <point x="600" y="109"/>
      <point x="600" y="134" type="curve" smooth="yes"/>
      <point x="600" y="182"/>
      <point x="637" y="238"/>
      <point x="690" y="238" type="curve" smooth="yes"/>
      <point x="711" y="238"/>
      <point x="726" y="226"/>
      <point x="726" y="200" type="curve" smooth="yes"/>
      <point x="726" y="154"/>
      <point x="688" y="97"/>
    </contour>
    <contour>
      <point x="257" y="338" type="curve" smooth="yes"/>
      <point x="374" y="338"/>
      <point x="464" y="431"/>
      <point x="464" y="544" type="curve" smooth="yes"/>
      <point x="464" y="629"/>
      <point x="407" y="694"/>
      <point x="306" y="694" type="curve" smooth="yes"/>
      <point x="190" y="694"/>
      <point x="101" y="600"/>
      <point x="101" y="487" type="curve" smooth="yes"/>
      <point x="101" y="401"/>
      <point x="160" y="338"/>
    </contour>
    <contour>
      <point x="255" y="445" type="curve" smooth="yes"/>
      <point x="234" y="445"/>
      <point x="220" y="457"/>
      <point x="220" y="482" type="curve" smooth="yes"/>
      <point x="220" y="529"/>
      <point x="257" y="586"/>
      <point x="309" y="586" type="curve" smooth="yes"/>
      <point x="331" y="586"/>
      <point x="345" y="574"/>
      <point x="345" y="549" type="curve" smooth="yes"/>
      <point x="345" y="502"/>
      <point x="307" y="445"/>
    </contour>
    <contour>
      <point x="1033" y="-11" type="curve" smooth="yes"/>
      <point x="1148" y="-11"/>
      <point x="1238" y="84"/>
      <point x="1238" y="195" type="curve" smooth="yes"/>
      <point x="1238" y="281"/>
      <point x="1181" y="346"/>
      <point x="1082" y="346" type="curve" smooth="yes"/>
      <point x="966" y="346"/>
      <point x="875" y="251"/>
      <point x="875" y="139" type="curve" smooth="yes"/>
      <point x="875" y="54"/>
      <point x="933" y="-11"/>
    </contour>
    <contour>
      <point x="1030" y="97" type="curve" smooth="yes"/>
      <point x="1008" y="97"/>
      <point x="994" y="109"/>
      <point x="994" y="134" type="curve" smooth="yes"/>
      <point x="994" y="182"/>
      <point x="1031" y="238"/>
      <point x="1084" y="238" type="curve" smooth="yes"/>
      <point x="1105" y="238"/>
      <point x="1120" y="226"/>
      <point x="1120" y="200" type="curve" smooth="yes"/>
      <point x="1120" y="154"/>
      <point x="1082" y="97"/>
    </contour>
  </outline>
</glyph>
<glyph name="guilsinglleft" format="1">
  <advance width="369"/>
  <unicode hex="2039"/>
  <outline>
    <contour>
      <point x="152" y="48" type="line"/>
      <point x="296" y="79" type="line"/>
      <point x="196" y="256" type="line"/>
      <point x="373" y="432" type="line"/>
      <point x="233" y="462" type="line"/>
      <point x="26" y="256" type="line"/>
    </contour>
  </outline>
</glyph>
<glyph name="euro" format="1">
  <advance width="781"/>
  <unicode hex="20AC"/>
  <outline>
    <contour>
      <point x="57" y="247" type="line"/>
      <point x="523" y="247" type="line"/>
      <point x="539" y="324" type="line"/>
      <point x="73" y="324" type="line"/>
    </contour>
    <contour>
      <point x="83" y="372" type="line"/>
      <point x="549" y="372" type="line"/>
      <point x="565" y="449" type="line"/>
      <point x="99" y="449" type="line"/>
    </contour>
    <component base="C" xOffset="70"/>
  </outline>
</glyph>
<glyph name="trademark" format="1">
  <advance width="780"/>
  <unicode hex="2122"/>
  <outline>
    <contour>
      <point x="144" y="280" type="line"/>
      <point x="239" y="280" type="line"/>
      <point x="284" y="495" type="line"/>
      <point x="367" y="495" type="line"/>
      <point x="384" y="580" type="line"/>
      <point x="122" y="580" type="line"/>
      <point x="105" y="495" type="line"/>
      <point x="189" y="495" type="line"/>
    </contour>
    <contour>
      <point x="356" y="280" type="line"/>
      <point x="452" y="280" type="line"/>
      <point x="481" y="421" type="line"/>
      <point x="531" y="297" type="line"/>
      <point x="631" y="421" type="line"/>
      <point x="602" y="280" type="line"/>
      <point x="697" y="280" type="line"/>
      <point x="759" y="580" type="line"/>
      <point x="664" y="580" type="line"/>
      <point x="564" y="457" type="line"/>
      <point x="514" y="580" type="line"/>
      <point x="418" y="580" type="line"/>
    </contour>
  </outline>
</glyph>
<glyph name="ascender" format="1">
  <advance width="380"/>
  <outline>
    <contour>
      <point x="40" y="0" type="line"/>
      <point x="233" y="0" type="line"/>
      <point x="378" y="699" type="line"/>
      <point x="185" y="699" type="line"/>
    </contour>
    <contour>
      <point x="245" y="108" type="move" name="k_arms"/>
    </contour>
    <contour>
      <point x="97" y="275" type="move" name="loop_left"/>
    </contour>
    <contour>
      <point x="284" y="247" type="move" name="loop_right"/>
    </contour>
    <contour>
      <point x="291" y="282" type="move" name="shoulder"/>
    </contour>
  </outline>
</glyph>
<glyph name="k_arms" format="1">
  <advance width="409"/>
  <outline>
    <contour>
      <point x="130" y="0" type="line"/>
      <point x="341" y="0" type="line"/>
      <point x="220" y="294" type="line"/>
      <point x="449" y="517" type="line"/>
      <point x="229" y="517" type="line"/>
      <point x="47" y="324" type="line"/>
      <point x="6" y="108" type="line"/>
      <point x="73" y="171" type="line"/>
    </contour>
    <contour>
      <point x="6" y="108" type="move" name="k_arms"/>
    </contour>
  </outline>
</glyph>
<glyph name="thorn_stem" format="1">
  <advance width="308"/>
  <outline>
    <contour>
      <point x="-32" y="-172" type="line"/>
      <point x="161" y="-172" type="line"/>
      <point x="342" y="699" type="line"/>
      <point x="149" y="699" type="line"/>
    </contour>
    <contour>
      <point x="248" y="247" type="move" name="loop_right"/>
    </contour>
  </outline>
</glyph>
